<svg xmlns="http://www.w3.org/2000/svg" xmlns:xlink="http://www.w3.org/1999/xlink" width="512" height="512"
     fill-rule="evenodd" stroke-linejoin="round" stroke-miterlimit="2" clip-rule="evenodd" viewBox="0 0 64 64">
  <linearGradient id="a">
    <stop offset="0" stop-color="#559aff"/>
    <stop offset="1" stop-color="#2e69ef"/>
  </linearGradient>
  <linearGradient xlink:href="#a" id="c" x1="0" x2="1" y1="0" y2="0"
                  gradientTransform="rotate(61.377 -16.401 15.324)scale(22.789)" gradientUnits="userSpaceOnUse"/>
  <linearGradient xlink:href="#a" id="d" x1="0" x2="1" y1="0" y2="0"
                  gradientTransform="rotate(59.49 5.695 54.148)scale(24.326)" gradientUnits="userSpaceOnUse"/>
  <linearGradient id="b">
    <stop offset="0" stop-color="#a4bbdb"/>
    <stop offset="1" stop-color="#8da3be"/>
  </linearGradient>
  <linearGradient xlink:href="#b" id="e" x1="0" x2="1" y1="0" y2="0"
                  gradientTransform="scale(7.875)rotate(44.43 -3.24 4.574)" gradientUnits="userSpaceOnUse"/>
  <linearGradient xlink:href="#b" id="f" x1="0" x2="1" y1="0" y2="0"
                  gradientTransform="scale(-9.6)rotate(-28.55 -8.377 8.22)" gradientUnits="userSpaceOnUse"/>
  <linearGradient id="g" x1="0" x2="1" y1="0" y2="0" gradientTransform="matrix(22.023 0 0 32.926 21 31.961)"
                  gradientUnits="userSpaceOnUse">
    <stop offset="0" stop-color="#cadcf0"/>
    <stop offset="1" stop-color="#a4bbdb"/>
  </linearGradient>
  <linearGradient id="h" x1="0" x2="1" y1="0" y2="0" gradientTransform="scale(18.982)rotate(6.482 -9.142 11.508)"
                  gradientUnits="userSpaceOnUse">
    <stop offset="0" stop-color="#e9f3fc"/>
    <stop offset="1" stop-color="#cadcf0"/>
  </linearGradient>
  <linearGradient id="i" x1="0" x2="1" y1="0" y2="0" gradientTransform="rotate(48.597 -11.091 41.981)scale(13.672)"
                  gradientUnits="userSpaceOnUse">
    <stop offset="0" stop-color="#738bab"/>
    <stop offset="1" stop-color="#526b8f"/>
  </linearGradient>
  <path fill="url(#c)"
        d="m11.648 19.185-8 13a1 1 0 0 0 .852 1.524h9a1 1 0 0 0 0-2H6.29l7.062-11.476a1.001 1.001 0 0 0-1.704-1.048"/>
  <path fill="url(#c)" d="M12.5 27.709v14a1 1 0 0 0 2 0v-14a1 1 0 0 0-2 0"/>
  <path fill="url(#d)"
        d="m57.648 19.185-8 13a1 1 0 0 0 .852 1.524h9a1 1 0 0 0 0-2h-7.21l7.062-11.476a1.001 1.001 0 0 0-1.704-1.048"/>
  <path fill="url(#d)" d="M58.5 27.709v14a1 1 0 0 0 2 0v-14a1 1 0 0 0-2 0"/>
  <path fill="url(#e)"
        d="M19.25 27.312c1.195-.69 3.173.496 4.415 2.647s1.28 4.457.085 5.147-3.173-.496-4.415-2.647-1.28-4.457-.085-5.147"/>
  <path fill="url(#f)"
        d="M45.363 27.737c-1.065-.878-3.212-.035-4.792 1.882s-1.998 4.184-.934 5.062 3.212.035 4.792-1.882 1.998-4.184.934-5.062"/>
  <path fill="url(#g)"
        d="M33 15.5c5.404.09 10.406 4.711 10 13-.25 5.088-3.401 6.476-5.148 11.999-.852 2.694-.94 5.414-.909 6.886a.993.993 0 0 1-1.099 1.034C29.34 47.457 21 38.828 21 30.5c0-8.831 5.378-15.111 12-15"/>
  <path fill="url(#h)"
        d="M21.582 34.43A14.2 14.2 0 0 1 21 30.5c0-8.831 5.378-15.111 12-15 4.094.068 7.958 2.737 9.413 7.631-.773 7.559-6.634 13.444-13.739 13.444-2.592 0-5.018-.784-7.092-2.145"/>
  <g fill="url(#i)">
    <ellipse cx="32" cy="29.709" rx="2" ry="3"/>
    <path
      d="M28.962 22.841c.181.662.192 1.785-.797 2.454a.5.5 0 1 0 .559.828c1.437-.97 1.465-2.584 1.203-3.545a.5.5 0 1 0-.965.263M34.073 22.578c-.262.961-.234 2.575 1.203 3.545a.5.5 0 1 0 .559-.828c-.989-.669-.978-1.792-.797-2.454a.5.5 0 0 0-.965-.263"/>
  </g>
</svg>
