<svg id="Capa_1" enable-background="new 0 0 512 512" height="512" viewBox="0 0 512 512" width="512"
     xmlns="http://www.w3.org/2000/svg">
  <g fill="currentColor">
    <path
      d="m265.738 222.31c-5.618 4.763-13.857 4.763-19.475 0-53.24-45.132-80.615-88.932-80.615-131.957-.001-49.901 40.452-90.353 90.352-90.353s90.353 40.452 90.353 90.353c0 43.025-27.375 86.825-80.615 131.957zm0 67.38c53.24 45.132 80.615 88.932 80.615 131.957 0 49.901-40.452 90.353-90.353 90.353s-90.353-40.452-90.353-90.353c0-43.025 27.375-86.825 80.615-131.957 5.619-4.763 13.857-4.763 19.476 0zm23.952-23.952c-4.763-5.618-4.763-13.857 0-19.475 45.133-53.24 88.933-80.615 131.957-80.615 49.901-.001 90.353 40.451 90.353 90.352s-40.452 90.353-90.353 90.353c-43.025 0-86.825-27.375-131.957-80.615zm-67.38 0c-45.133 53.24-88.933 80.615-131.957 80.615-49.901 0-90.353-40.452-90.353-90.353s40.452-90.353 90.353-90.353c43.025 0 86.825 27.375 131.957 80.615 4.763 5.619 4.763 13.857 0 19.476z"/>
  </g>
</svg>
